<mxfile host="65bd71144e">
    <diagram id="S6gQb00AdiKegGAT3-59" name="Page-1">
        <mxGraphModel dx="901" dy="475" grid="1" gridSize="10" guides="1" tooltips="1" connect="1" arrows="1" fold="1" page="1" pageScale="1" pageWidth="850" pageHeight="1100" math="0" shadow="0">
            <root>
                <mxCell id="0"/>
                <mxCell id="1" parent="0"/>
                <mxCell id="2" value="&lt;font style=&quot;font-size: 24px;&quot;&gt;Shared Book&lt;/font&gt;" style="text;strokeColor=none;fillColor=none;align=left;verticalAlign=middle;spacingLeft=4;spacingRight=4;overflow=hidden;points=[[0,0.5],[1,0.5]];portConstraint=eastwest;rotatable=0;whiteSpace=wrap;html=1;" parent="1" vertex="1">
                    <mxGeometry x="10" y="10" width="190" height="50" as="geometry"/>
                </mxCell>
                <mxCell id="3" value="&lt;font style=&quot;font-size: 14px;&quot;&gt;ログイン　アカウント登録&lt;/font&gt;" style="rounded=0;whiteSpace=wrap;html=1;fontSize=18;" parent="1" vertex="1">
                    <mxGeometry x="630" width="220" height="60" as="geometry"/>
                </mxCell>
                <mxCell id="17" value="&lt;table data-sheets-root=&quot;1&quot; style=&quot;table-layout:fixed;font-size:10pt;font-family:Arial;width:0px;&quot; dir=&quot;ltr&quot; cellpadding=&quot;0&quot; cellspacing=&quot;0&quot; xmlns=&quot;http://www.w3.org/1999/xhtml&quot;&gt;&lt;colgroup&gt;&lt;col width=&quot;46&quot;&gt;&lt;col width=&quot;22&quot;&gt;&lt;col width=&quot;46&quot;&gt;&lt;col width=&quot;46&quot;&gt;&lt;col width=&quot;46&quot;&gt;&lt;col width=&quot;46&quot;&gt;&lt;col width=&quot;46&quot;&gt;&lt;col width=&quot;46&quot;&gt;&lt;col width=&quot;46&quot;&gt;&lt;col width=&quot;46&quot;&gt;&lt;col width=&quot;46&quot;&gt;&lt;col width=&quot;46&quot;&gt;&lt;/colgroup&gt;&lt;tbody&gt;&lt;tr style=&quot;height:21px;&quot;&gt;&lt;td data-sheets-value=&quot;{&amp;quot;1&amp;quot;:2,&amp;quot;2&amp;quot;:&amp;quot;製品概要&amp;quot;}&quot; style=&quot;border-right:1px solid transparent;overflow:visible;padding:2px 0px 2px 0px;vertical-align:bottom;font-weight:bold;&quot;&gt;&lt;div style=&quot;overflow: hidden; position: relative; width: 64px; left: 3px;&quot;&gt;&lt;div style=&quot;float:left;&quot;&gt;製品概要&lt;/div&gt;&lt;/div&gt;&lt;/td&gt;&lt;td style=&quot;overflow:hidden;padding:2px 3px 2px 3px;vertical-align:bottom;&quot;&gt;&lt;/td&gt;&lt;td data-sheets-value=&quot;{&amp;quot;1&amp;quot;:2,&amp;quot;2&amp;quot;:&amp;quot;家計簿の内容を家族全員で共有、作成可能。グラフで支出の内容が一目で分かります。自動で各個人が負担すべき金額を割り出し、収入が多い方から少ない方への振込金額を算出できます。&amp;quot;}&quot; colspan=&quot;10&quot; rowspan=&quot;3&quot; style=&quot;overflow: hidden; padding: 2px 3px; vertical-align: top; overflow-wrap: break-word;&quot;&gt;&lt;span&gt;&lt;div style=&quot;max-height:63px&quot;&gt;家計簿の内容を家族全員で共有、作成可能。グラフで支出の内容が一目で分かります。自動で各個人が負担すべき金額を割り出し、収入が多い方から少ない方への振込金額を算出できます。&lt;/div&gt;&lt;/span&gt;&lt;/td&gt;&lt;/tr&gt;&lt;tr style=&quot;height:21px;&quot;&gt;&lt;td style=&quot;overflow:hidden;padding:2px 3px 2px 3px;vertical-align:bottom;&quot;&gt;&lt;/td&gt;&lt;td style=&quot;overflow:hidden;padding:2px 3px 2px 3px;vertical-align:bottom;&quot;&gt;&lt;/td&gt;&lt;/tr&gt;&lt;tr style=&quot;height:21px;&quot;&gt;&lt;td style=&quot;overflow:hidden;padding:2px 3px 2px 3px;vertical-align:bottom;&quot;&gt;&lt;/td&gt;&lt;td style=&quot;overflow:hidden;padding:2px 3px 2px 3px;vertical-align:bottom;&quot;&gt;&lt;/td&gt;&lt;/tr&gt;&lt;/tbody&gt;&lt;/table&gt;" style="text;whiteSpace=wrap;html=1;" parent="1" vertex="1">
                    <mxGeometry x="150" y="230" width="560" height="90" as="geometry"/>
                </mxCell>
                <mxCell id="19" value="&lt;font style=&quot;font-size: 24px;&quot;&gt;Shared Bookでみんなで家計簿をシェアしよう！&lt;/font&gt;" style="text;strokeColor=none;fillColor=none;align=left;verticalAlign=middle;spacingLeft=4;spacingRight=4;overflow=hidden;points=[[0,0.5],[1,0.5]];portConstraint=eastwest;rotatable=0;whiteSpace=wrap;html=1;" parent="1" vertex="1">
                    <mxGeometry x="170" y="100" width="560" height="100" as="geometry"/>
                </mxCell>
                <mxCell id="20" value="@ 2024 Shared Book ALL RIGHTS RESERVED." style="rounded=0;whiteSpace=wrap;html=1;" parent="1" vertex="1">
                    <mxGeometry y="700" width="850" height="60" as="geometry"/>
                </mxCell>
                <mxCell id="21" value="&lt;table data-sheets-root=&quot;1&quot; style=&quot;table-layout:fixed;font-size:10pt;font-family:Arial;width:0px;&quot; dir=&quot;ltr&quot; cellpadding=&quot;0&quot; cellspacing=&quot;0&quot; xmlns=&quot;http://www.w3.org/1999/xhtml&quot;&gt;&lt;colgroup&gt;&lt;col width=&quot;46&quot;&gt;&lt;col width=&quot;22&quot;&gt;&lt;col width=&quot;46&quot;&gt;&lt;col width=&quot;46&quot;&gt;&lt;col width=&quot;46&quot;&gt;&lt;col width=&quot;46&quot;&gt;&lt;col width=&quot;46&quot;&gt;&lt;col width=&quot;46&quot;&gt;&lt;col width=&quot;46&quot;&gt;&lt;col width=&quot;46&quot;&gt;&lt;col width=&quot;46&quot;&gt;&lt;col width=&quot;46&quot;&gt;&lt;/colgroup&gt;&lt;tbody&gt;&lt;tr style=&quot;height:21px;&quot;&gt;&lt;td data-sheets-value=&quot;{&amp;quot;1&amp;quot;:2,&amp;quot;2&amp;quot;:&amp;quot;機能一覧&amp;quot;}&quot; style=&quot;border-right:1px solid transparent;overflow:visible;padding:2px 0px 2px 0px;vertical-align:bottom;font-weight:bold;&quot;&gt;&lt;div style=&quot;overflow: hidden; position: relative; width: 64px; left: 3px;&quot;&gt;&lt;div style=&quot;float:left;&quot;&gt;機能一覧&lt;/div&gt;&lt;/div&gt;&lt;/td&gt;&lt;td style=&quot;overflow:hidden;padding:2px 3px 2px 3px;vertical-align:bottom;&quot;&gt;&lt;/td&gt;&lt;td style=&quot;overflow:hidden;padding:2px 3px 2px 3px;vertical-align:bottom;&quot;&gt;&lt;/td&gt;&lt;td style=&quot;overflow:hidden;padding:2px 3px 2px 3px;vertical-align:bottom;&quot;&gt;&lt;/td&gt;&lt;td style=&quot;overflow:hidden;padding:2px 3px 2px 3px;vertical-align:bottom;&quot;&gt;&lt;/td&gt;&lt;td style=&quot;overflow:hidden;padding:2px 3px 2px 3px;vertical-align:bottom;&quot;&gt;&lt;/td&gt;&lt;td style=&quot;overflow:hidden;padding:2px 3px 2px 3px;vertical-align:bottom;&quot;&gt;&lt;/td&gt;&lt;td style=&quot;overflow:hidden;padding:2px 3px 2px 3px;vertical-align:bottom;&quot;&gt;&lt;/td&gt;&lt;td style=&quot;overflow:hidden;padding:2px 3px 2px 3px;vertical-align:bottom;&quot;&gt;&lt;/td&gt;&lt;td style=&quot;overflow:hidden;padding:2px 3px 2px 3px;vertical-align:bottom;&quot;&gt;&lt;/td&gt;&lt;td style=&quot;overflow:hidden;padding:2px 3px 2px 3px;vertical-align:bottom;&quot;&gt;&lt;/td&gt;&lt;td style=&quot;overflow:hidden;padding:2px 3px 2px 3px;vertical-align:bottom;&quot;&gt;&lt;/td&gt;&lt;/tr&gt;&lt;tr style=&quot;height:21px;&quot;&gt;&lt;td style=&quot;overflow:hidden;padding:2px 3px 2px 3px;vertical-align:bottom;&quot;&gt;&lt;/td&gt;&lt;td style=&quot;overflow:hidden;padding:2px 3px 2px 3px;vertical-align:bottom;&quot;&gt;&lt;/td&gt;&lt;td style=&quot;overflow:hidden;padding:2px 3px 2px 3px;vertical-align:bottom;&quot;&gt;&lt;/td&gt;&lt;td style=&quot;overflow:hidden;padding:2px 3px 2px 3px;vertical-align:bottom;&quot;&gt;&lt;/td&gt;&lt;td style=&quot;overflow:hidden;padding:2px 3px 2px 3px;vertical-align:bottom;&quot;&gt;&lt;/td&gt;&lt;td style=&quot;overflow:hidden;padding:2px 3px 2px 3px;vertical-align:bottom;&quot;&gt;&lt;/td&gt;&lt;td style=&quot;overflow:hidden;padding:2px 3px 2px 3px;vertical-align:bottom;&quot;&gt;&lt;/td&gt;&lt;td style=&quot;overflow:hidden;padding:2px 3px 2px 3px;vertical-align:bottom;&quot;&gt;&lt;/td&gt;&lt;td style=&quot;overflow:hidden;padding:2px 3px 2px 3px;vertical-align:bottom;&quot;&gt;&lt;/td&gt;&lt;td style=&quot;overflow:hidden;padding:2px 3px 2px 3px;vertical-align:bottom;&quot;&gt;&lt;/td&gt;&lt;td style=&quot;overflow:hidden;padding:2px 3px 2px 3px;vertical-align:bottom;&quot;&gt;&lt;/td&gt;&lt;td style=&quot;overflow:hidden;padding:2px 3px 2px 3px;vertical-align:bottom;&quot;&gt;&lt;/td&gt;&lt;/tr&gt;&lt;tr style=&quot;height:21px;&quot;&gt;&lt;td data-sheets-value=&quot;{&amp;quot;1&amp;quot;:2,&amp;quot;2&amp;quot;:&amp;quot;＃&amp;quot;}&quot; style=&quot;border-bottom:1px solid #000000;overflow:hidden;padding:2px 3px 2px 3px;vertical-align:bottom;text-align:right;&quot;&gt;＃&lt;/td&gt;&lt;td style=&quot;overflow:hidden;padding:2px 3px 2px 3px;vertical-align:bottom;&quot;&gt;&lt;/td&gt;&lt;td data-sheets-value=&quot;{&amp;quot;1&amp;quot;:2,&amp;quot;2&amp;quot;:&amp;quot;機能説明&amp;quot;}&quot; style=&quot;border-right:1px solid transparent;border-bottom:1px solid #000000;overflow:visible;padding:2px 0px 2px 0px;vertical-align:bottom;&quot;&gt;&lt;div style=&quot;overflow: hidden; position: relative; width: 88px; left: 3px;&quot;&gt;&lt;div style=&quot;float:left;&quot;&gt;機能説明&lt;/div&gt;&lt;/div&gt;&lt;/td&gt;&lt;td style=&quot;border-bottom:1px solid #000000;overflow:hidden;padding:2px 3px 2px 3px;vertical-align:bottom;&quot;&gt;&lt;/td&gt;&lt;td style=&quot;border-bottom:1px solid #000000;overflow:hidden;padding:2px 3px 2px 3px;vertical-align:bottom;&quot;&gt;&lt;/td&gt;&lt;td style=&quot;border-bottom:1px solid #000000;overflow:hidden;padding:2px 3px 2px 3px;vertical-align:bottom;&quot;&gt;&lt;/td&gt;&lt;td style=&quot;border-bottom:1px solid #000000;overflow:hidden;padding:2px 3px 2px 3px;vertical-align:bottom;&quot;&gt;&lt;/td&gt;&lt;td style=&quot;border-bottom:1px solid #000000;overflow:hidden;padding:2px 3px 2px 3px;vertical-align:bottom;&quot;&gt;&lt;/td&gt;&lt;td style=&quot;border-bottom:1px solid #000000;overflow:hidden;padding:2px 3px 2px 3px;vertical-align:bottom;&quot;&gt;&lt;/td&gt;&lt;td style=&quot;border-bottom:1px solid #000000;overflow:hidden;padding:2px 3px 2px 3px;vertical-align:bottom;&quot;&gt;&lt;/td&gt;&lt;td style=&quot;border-bottom:1px solid #000000;overflow:hidden;padding:2px 3px 2px 3px;vertical-align:bottom;&quot;&gt;&lt;/td&gt;&lt;td style=&quot;border-bottom:1px solid #000000;overflow:hidden;padding:2px 3px 2px 3px;vertical-align:bottom;&quot;&gt;&lt;/td&gt;&lt;/tr&gt;&lt;tr style=&quot;height:21px;&quot;&gt;&lt;td style=&quot;overflow:hidden;padding:2px 3px 2px 3px;vertical-align:bottom;&quot;&gt;&lt;/td&gt;&lt;td style=&quot;overflow:hidden;padding:2px 3px 2px 3px;vertical-align:bottom;&quot;&gt;&lt;/td&gt;&lt;td style=&quot;overflow:hidden;padding:2px 3px 2px 3px;vertical-align:bottom;&quot;&gt;&lt;/td&gt;&lt;td style=&quot;overflow:hidden;padding:2px 3px 2px 3px;vertical-align:bottom;&quot;&gt;&lt;/td&gt;&lt;td style=&quot;overflow:hidden;padding:2px 3px 2px 3px;vertical-align:bottom;&quot;&gt;&lt;/td&gt;&lt;td style=&quot;overflow:hidden;padding:2px 3px 2px 3px;vertical-align:bottom;&quot;&gt;&lt;/td&gt;&lt;td style=&quot;overflow:hidden;padding:2px 3px 2px 3px;vertical-align:bottom;&quot;&gt;&lt;/td&gt;&lt;td style=&quot;overflow:hidden;padding:2px 3px 2px 3px;vertical-align:bottom;&quot;&gt;&lt;/td&gt;&lt;td style=&quot;overflow:hidden;padding:2px 3px 2px 3px;vertical-align:bottom;&quot;&gt;&lt;/td&gt;&lt;td style=&quot;overflow:hidden;padding:2px 3px 2px 3px;vertical-align:bottom;&quot;&gt;&lt;/td&gt;&lt;td style=&quot;overflow:hidden;padding:2px 3px 2px 3px;vertical-align:bottom;&quot;&gt;&lt;/td&gt;&lt;td style=&quot;overflow:hidden;padding:2px 3px 2px 3px;vertical-align:bottom;&quot;&gt;&lt;/td&gt;&lt;/tr&gt;&lt;tr style=&quot;height:21px;&quot;&gt;&lt;td data-sheets-value=&quot;{&amp;quot;1&amp;quot;:3,&amp;quot;3&amp;quot;:1}&quot; style=&quot;overflow:hidden;padding:2px 3px 2px 3px;vertical-align:bottom;text-align:right;&quot;&gt;1&lt;/td&gt;&lt;td style=&quot;overflow:hidden;padding:2px 3px 2px 3px;vertical-align:bottom;&quot;&gt;&lt;/td&gt;&lt;td data-sheets-value=&quot;{&amp;quot;1&amp;quot;:2,&amp;quot;2&amp;quot;:&amp;quot;収入金額、支出金額に基づいた振込金額の算出機能&amp;quot;}&quot; style=&quot;border-right:1px solid transparent;overflow:visible;padding:2px 0px 2px 0px;vertical-align:bottom;&quot;&gt;&lt;div style=&quot;overflow: hidden; position: relative; width: 323px; left: 3px;&quot;&gt;&lt;div style=&quot;float:left;&quot;&gt;収入金額、支出金額に基づいた振込金額の算出機能&lt;/div&gt;&lt;/div&gt;&lt;/td&gt;&lt;td style=&quot;border-right:1px solid transparent;overflow:hidden;padding:2px 3px 2px 3px;vertical-align:bottom;&quot;&gt;&lt;/td&gt;&lt;td style=&quot;border-right:1px solid transparent;overflow:hidden;padding:2px 3px 2px 3px;vertical-align:bottom;&quot;&gt;&lt;/td&gt;&lt;td style=&quot;border-right:1px solid transparent;overflow:hidden;padding:2px 3px 2px 3px;vertical-align:bottom;&quot;&gt;&lt;/td&gt;&lt;td style=&quot;border-right:1px solid transparent;overflow:hidden;padding:2px 3px 2px 3px;vertical-align:bottom;&quot;&gt;&lt;/td&gt;&lt;td style=&quot;border-right:1px solid transparent;overflow:hidden;padding:2px 3px 2px 3px;vertical-align:bottom;&quot;&gt;&lt;/td&gt;&lt;td style=&quot;overflow:hidden;padding:2px 3px 2px 3px;vertical-align:bottom;&quot;&gt;&lt;/td&gt;&lt;td style=&quot;overflow:hidden;padding:2px 3px 2px 3px;vertical-align:bottom;&quot;&gt;&lt;/td&gt;&lt;td style=&quot;overflow:hidden;padding:2px 3px 2px 3px;vertical-align:bottom;&quot;&gt;&lt;/td&gt;&lt;td style=&quot;overflow:hidden;padding:2px 3px 2px 3px;vertical-align:bottom;&quot;&gt;&lt;/td&gt;&lt;/tr&gt;&lt;tr style=&quot;height:21px;&quot;&gt;&lt;td style=&quot;overflow:hidden;padding:2px 3px 2px 3px;vertical-align:bottom;&quot;&gt;&lt;/td&gt;&lt;td style=&quot;overflow:hidden;padding:2px 3px 2px 3px;vertical-align:bottom;&quot;&gt;&lt;/td&gt;&lt;td data-sheets-value=&quot;{&amp;quot;1&amp;quot;:2,&amp;quot;2&amp;quot;:&amp;quot;各個人の収入金額から負担すべき割合を算出し、各個人が負担した支出金額から差し引いた負担すべき金額を自動算出します。そして、収入金額が多い人から少ない人への振込金額を確認できます。実際に振り込まれた金額から過不足がある場合は、次月へ繰り越し機能もあります。&amp;quot;}&quot; colspan=&quot;10&quot; rowspan=&quot;4&quot; style=&quot;overflow: hidden; padding: 2px 3px; vertical-align: top; overflow-wrap: break-word;&quot;&gt;&lt;span&gt;&lt;div style=&quot;max-height:84px&quot;&gt;各個人の収入金額から負担すべき割合を算出し、各個人が負担した支出金額から差し引いた負担すべき金額を自動算出します。そして、収入金額が多い人から少ない人への振込金額を確認できます。実際に振り込まれた金額から過不足がある場合は、次月へ繰り越し機能もあります。&lt;/div&gt;&lt;/span&gt;&lt;/td&gt;&lt;/tr&gt;&lt;tr style=&quot;height:21px;&quot;&gt;&lt;td style=&quot;overflow:hidden;padding:2px 3px 2px 3px;vertical-align:bottom;&quot;&gt;&lt;/td&gt;&lt;td style=&quot;overflow:hidden;padding:2px 3px 2px 3px;vertical-align:bottom;&quot;&gt;&lt;/td&gt;&lt;/tr&gt;&lt;tr style=&quot;height:21px;&quot;&gt;&lt;td style=&quot;overflow:hidden;padding:2px 3px 2px 3px;vertical-align:bottom;&quot;&gt;&lt;/td&gt;&lt;td style=&quot;overflow:hidden;padding:2px 3px 2px 3px;vertical-align:bottom;&quot;&gt;&lt;/td&gt;&lt;/tr&gt;&lt;tr style=&quot;height:21px;&quot;&gt;&lt;td style=&quot;overflow:hidden;padding:2px 3px 2px 3px;vertical-align:bottom;&quot;&gt;&lt;/td&gt;&lt;td style=&quot;overflow:hidden;padding:2px 3px 2px 3px;vertical-align:bottom;&quot;&gt;&lt;/td&gt;&lt;/tr&gt;&lt;tr style=&quot;height:21px;&quot;&gt;&lt;td data-sheets-value=&quot;{&amp;quot;1&amp;quot;:3,&amp;quot;3&amp;quot;:2}&quot; style=&quot;overflow:hidden;padding:2px 3px 2px 3px;vertical-align:bottom;text-align:right;&quot;&gt;2&lt;/td&gt;&lt;td style=&quot;overflow:hidden;padding:2px 3px 2px 3px;vertical-align:bottom;&quot;&gt;&lt;/td&gt;&lt;td data-sheets-value=&quot;{&amp;quot;1&amp;quot;:2,&amp;quot;2&amp;quot;:&amp;quot;グラフ表示機能&amp;quot;}&quot; style=&quot;border-right:1px solid transparent;overflow:visible;padding:2px 0px 2px 0px;vertical-align:bottom;&quot;&gt;&lt;div style=&quot;overflow: hidden; position: relative; width: 135px; left: 3px;&quot;&gt;&lt;div style=&quot;float:left;&quot;&gt;グラフ表示機能&lt;/div&gt;&lt;/div&gt;&lt;/td&gt;&lt;td style=&quot;border-right:1px solid transparent;overflow:hidden;padding:2px 3px 2px 3px;vertical-align:bottom;&quot;&gt;&lt;/td&gt;&lt;td style=&quot;overflow:hidden;padding:2px 3px 2px 3px;vertical-align:bottom;&quot;&gt;&lt;/td&gt;&lt;td style=&quot;overflow:hidden;padding:2px 3px 2px 3px;vertical-align:bottom;&quot;&gt;&lt;/td&gt;&lt;td style=&quot;overflow:hidden;padding:2px 3px 2px 3px;vertical-align:bottom;&quot;&gt;&lt;/td&gt;&lt;td style=&quot;overflow:hidden;padding:2px 3px 2px 3px;vertical-align:bottom;&quot;&gt;&lt;/td&gt;&lt;td style=&quot;overflow:hidden;padding:2px 3px 2px 3px;vertical-align:bottom;&quot;&gt;&lt;/td&gt;&lt;td style=&quot;overflow:hidden;padding:2px 3px 2px 3px;vertical-align:bottom;&quot;&gt;&lt;/td&gt;&lt;td style=&quot;overflow:hidden;padding:2px 3px 2px 3px;vertical-align:bottom;&quot;&gt;&lt;/td&gt;&lt;td style=&quot;overflow:hidden;padding:2px 3px 2px 3px;vertical-align:bottom;&quot;&gt;&lt;/td&gt;&lt;/tr&gt;&lt;tr style=&quot;height:21px;&quot;&gt;&lt;td style=&quot;overflow:hidden;padding:2px 3px 2px 3px;vertical-align:bottom;&quot;&gt;&lt;/td&gt;&lt;td style=&quot;overflow:hidden;padding:2px 3px 2px 3px;vertical-align:bottom;&quot;&gt;&lt;/td&gt;&lt;td data-sheets-value=&quot;{&amp;quot;1&amp;quot;:2,&amp;quot;2&amp;quot;:&amp;quot;全体や各項目別で月々の変動をグラフで一目で分かります。月単位で項目別円グラフを表示させ、どの項目に一番費用が掛かっているか分かります。棒グラフで収入と支出、折れ線グラフで収支を分かりやすく表示します。&amp;quot;}&quot; colspan=&quot;10&quot; rowspan=&quot;3&quot; style=&quot;overflow: hidden; padding: 2px 3px; vertical-align: top; overflow-wrap: break-word;&quot;&gt;&lt;span&gt;&lt;div style=&quot;max-height:63px&quot;&gt;全体や各項目別で月々の変動をグラフで一目で分かります。月単位で項目別円グラフを表示させ、どの項目に一番費用が掛かっているか分かります。棒グラフで収入と支出、折れ線グラフで収支を分かりやすく表示します。&lt;/div&gt;&lt;/span&gt;&lt;/td&gt;&lt;/tr&gt;&lt;tr style=&quot;height:21px;&quot;&gt;&lt;td style=&quot;overflow:hidden;padding:2px 3px 2px 3px;vertical-align:bottom;&quot;&gt;&lt;/td&gt;&lt;td style=&quot;overflow:hidden;padding:2px 3px 2px 3px;vertical-align:bottom;&quot;&gt;&lt;/td&gt;&lt;/tr&gt;&lt;tr style=&quot;height:21px;&quot;&gt;&lt;td style=&quot;overflow:hidden;padding:2px 3px 2px 3px;vertical-align:bottom;&quot;&gt;&lt;/td&gt;&lt;td style=&quot;overflow:hidden;padding:2px 3px 2px 3px;vertical-align:bottom;&quot;&gt;&lt;/td&gt;&lt;/tr&gt;&lt;tr style=&quot;height:21px;&quot;&gt;&lt;td style=&quot;overflow:hidden;padding:2px 3px 2px 3px;vertical-align:bottom;&quot;&gt;&lt;/td&gt;&lt;td style=&quot;overflow:hidden;padding:2px 3px 2px 3px;vertical-align:bottom;&quot;&gt;&lt;/td&gt;&lt;td style=&quot;overflow:hidden;padding:2px 3px 2px 3px;vertical-align:top;&quot;&gt;&lt;/td&gt;&lt;td style=&quot;overflow:hidden;padding:2px 3px 2px 3px;vertical-align:top;&quot;&gt;&lt;/td&gt;&lt;td style=&quot;overflow:hidden;padding:2px 3px 2px 3px;vertical-align:top;&quot;&gt;&lt;/td&gt;&lt;td style=&quot;overflow:hidden;padding:2px 3px 2px 3px;vertical-align:top;&quot;&gt;&lt;/td&gt;&lt;td style=&quot;overflow:hidden;padding:2px 3px 2px 3px;vertical-align:top;&quot;&gt;&lt;/td&gt;&lt;td style=&quot;overflow:hidden;padding:2px 3px 2px 3px;vertical-align:top;&quot;&gt;&lt;/td&gt;&lt;td style=&quot;overflow:hidden;padding:2px 3px 2px 3px;vertical-align:top;&quot;&gt;&lt;/td&gt;&lt;td style=&quot;overflow:hidden;padding:2px 3px 2px 3px;vertical-align:top;&quot;&gt;&lt;/td&gt;&lt;td style=&quot;overflow:hidden;padding:2px 3px 2px 3px;vertical-align:top;&quot;&gt;&lt;/td&gt;&lt;td style=&quot;overflow:hidden;padding:2px 3px 2px 3px;vertical-align:top;&quot;&gt;&lt;/td&gt;&lt;/tr&gt;&lt;tr style=&quot;height:21px;&quot;&gt;&lt;td data-sheets-value=&quot;{&amp;quot;1&amp;quot;:3,&amp;quot;3&amp;quot;:3}&quot; style=&quot;overflow:hidden;padding:2px 3px 2px 3px;vertical-align:bottom;text-align:right;&quot;&gt;3&lt;/td&gt;&lt;td style=&quot;overflow:hidden;padding:2px 3px 2px 3px;vertical-align:bottom;&quot;&gt;&lt;/td&gt;&lt;td data-sheets-value=&quot;{&amp;quot;1&amp;quot;:2,&amp;quot;2&amp;quot;:&amp;quot;カレンダー形式で毎日の支出金額表示機能&amp;quot;}&quot; style=&quot;border-right:1px solid transparent;overflow:visible;padding:2px 0px 2px 0px;vertical-align:bottom;&quot;&gt;&lt;div style=&quot;overflow: hidden; position: relative; width: 276px; left: 3px;&quot;&gt;&lt;div style=&quot;float:left;&quot;&gt;カレンダー形式で毎日の支出金額表示機能&lt;/div&gt;&lt;/div&gt;&lt;/td&gt;&lt;td style=&quot;border-right:1px solid transparent;overflow:hidden;padding:2px 3px 2px 3px;vertical-align:bottom;&quot;&gt;&lt;/td&gt;&lt;td style=&quot;border-right:1px solid transparent;overflow:hidden;padding:2px 3px 2px 3px;vertical-align:bottom;&quot;&gt;&lt;/td&gt;&lt;td style=&quot;border-right:1px solid transparent;overflow:hidden;padding:2px 3px 2px 3px;vertical-align:bottom;&quot;&gt;&lt;/td&gt;&lt;td style=&quot;border-right:1px solid transparent;overflow:hidden;padding:2px 3px 2px 3px;vertical-align:bottom;&quot;&gt;&lt;/td&gt;&lt;td style=&quot;overflow:hidden;padding:2px 3px 2px 3px;vertical-align:bottom;&quot;&gt;&lt;/td&gt;&lt;td style=&quot;overflow:hidden;padding:2px 3px 2px 3px;vertical-align:bottom;&quot;&gt;&lt;/td&gt;&lt;td style=&quot;overflow:hidden;padding:2px 3px 2px 3px;vertical-align:bottom;&quot;&gt;&lt;/td&gt;&lt;td style=&quot;overflow:hidden;padding:2px 3px 2px 3px;vertical-align:bottom;&quot;&gt;&lt;/td&gt;&lt;td style=&quot;overflow:hidden;padding:2px 3px 2px 3px;vertical-align:bottom;&quot;&gt;&lt;/td&gt;&lt;/tr&gt;&lt;tr style=&quot;height:21px;&quot;&gt;&lt;td style=&quot;overflow:hidden;padding:2px 3px 2px 3px;vertical-align:bottom;&quot;&gt;&lt;/td&gt;&lt;td style=&quot;overflow:hidden;padding:2px 3px 2px 3px;vertical-align:bottom;&quot;&gt;&lt;/td&gt;&lt;td data-sheets-value=&quot;{&amp;quot;1&amp;quot;:2,&amp;quot;2&amp;quot;:&amp;quot;毎日の支出金額がカレンダー上で確認できます。&amp;quot;}&quot; style=&quot;border-right:1px solid transparent;overflow:visible;padding:2px 0px 2px 0px;vertical-align:bottom;&quot;&gt;&lt;div style=&quot;overflow: hidden; position: relative; width: 323px; left: 3px;&quot;&gt;&lt;div style=&quot;float:left;&quot;&gt;毎日の支出金額がカレンダー上で確認できます。&lt;/div&gt;&lt;/div&gt;&lt;/td&gt;&lt;td style=&quot;border-right:1px solid transparent;overflow:hidden;padding:2px 3px 2px 3px;vertical-align:bottom;&quot;&gt;&lt;/td&gt;&lt;td style=&quot;border-right:1px solid transparent;overflow:hidden;padding:2px 3px 2px 3px;vertical-align:bottom;&quot;&gt;&lt;/td&gt;&lt;td style=&quot;border-right:1px solid transparent;overflow:hidden;padding:2px 3px 2px 3px;vertical-align:bottom;&quot;&gt;&lt;/td&gt;&lt;td style=&quot;border-right:1px solid transparent;overflow:hidden;padding:2px 3px 2px 3px;vertical-align:bottom;&quot;&gt;&lt;/td&gt;&lt;td style=&quot;border-right:1px solid transparent;overflow:hidden;padding:2px 3px 2px 3px;vertical-align:bottom;&quot;&gt;&lt;/td&gt;&lt;td style=&quot;overflow:hidden;padding:2px 3px 2px 3px;vertical-align:bottom;&quot;&gt;&lt;/td&gt;&lt;td style=&quot;overflow:hidden;padding:2px 3px 2px 3px;vertical-align:bottom;&quot;&gt;&lt;/td&gt;&lt;td style=&quot;overflow:hidden;padding:2px 3px 2px 3px;vertical-align:bottom;&quot;&gt;&lt;/td&gt;&lt;td style=&quot;overflow:hidden;padding:2px 3px 2px 3px;vertical-align:bottom;&quot;&gt;&lt;/td&gt;&lt;/tr&gt;&lt;tr style=&quot;height:21px;&quot;&gt;&lt;td style=&quot;overflow:hidden;padding:2px 3px 2px 3px;vertical-align:bottom;&quot;&gt;&lt;/td&gt;&lt;td style=&quot;overflow:hidden;padding:2px 3px 2px 3px;vertical-align:bottom;&quot;&gt;&lt;/td&gt;&lt;td style=&quot;overflow:hidden;padding:2px 3px 2px 3px;vertical-align:bottom;&quot;&gt;&lt;/td&gt;&lt;td style=&quot;overflow:hidden;padding:2px 3px 2px 3px;vertical-align:bottom;&quot;&gt;&lt;/td&gt;&lt;td style=&quot;overflow:hidden;padding:2px 3px 2px 3px;vertical-align:bottom;&quot;&gt;&lt;/td&gt;&lt;td style=&quot;overflow:hidden;padding:2px 3px 2px 3px;vertical-align:bottom;&quot;&gt;&lt;/td&gt;&lt;td style=&quot;overflow:hidden;padding:2px 3px 2px 3px;vertical-align:bottom;&quot;&gt;&lt;/td&gt;&lt;td style=&quot;overflow:hidden;padding:2px 3px 2px 3px;vertical-align:bottom;&quot;&gt;&lt;/td&gt;&lt;td style=&quot;overflow:hidden;padding:2px 3px 2px 3px;vertical-align:bottom;&quot;&gt;&lt;/td&gt;&lt;td style=&quot;overflow:hidden;padding:2px 3px 2px 3px;vertical-align:bottom;&quot;&gt;&lt;/td&gt;&lt;td style=&quot;overflow:hidden;padding:2px 3px 2px 3px;vertical-align:bottom;&quot;&gt;&lt;/td&gt;&lt;td style=&quot;overflow:hidden;padding:2px 3px 2px 3px;vertical-align:bottom;&quot;&gt;&lt;/td&gt;&lt;/tr&gt;&lt;/tbody&gt;&lt;/table&gt;" style="text;whiteSpace=wrap;html=1;" vertex="1" parent="1">
                    <mxGeometry x="145" y="340" width="560" height="380" as="geometry"/>
                </mxCell>
            </root>
        </mxGraphModel>
    </diagram>
</mxfile>